<?xml version="1.0" encoding="iso-8859-1"?>
<!-- Uploaded to: SVG Repo, www.svgrepo.com, Generator: SVG Repo Mixer Tools -->
<!DOCTYPE svg PUBLIC "-//W3C//DTD SVG 1.1//EN" "http://www.w3.org/Graphics/SVG/1.1/DTD/svg11.dtd">
<svg fill="#000000" height="800px" width="800px" version="1.1" id="Capa_1" xmlns="http://www.w3.org/2000/svg" xmlns:xlink="http://www.w3.org/1999/xlink" 
	 viewBox="0 0 488.5 488.5" xml:space="preserve">
<g>
	<path d="M311.564,420.083c-0.752-0.598-1.684-0.923-2.645-0.923H178.296c-0.961,0-1.894,0.326-2.645,0.923
		c-11.729,9.327-17.928,20.594-17.928,32.585c0,12.989,7.545,25.44,21.245,35.06c0.716,0.502,1.568,0.771,2.442,0.771h124.397
		c0.874,0,1.727-0.27,2.442-0.772c13.699-9.62,21.243-22.07,21.243-35.059C329.492,440.678,323.293,429.41,311.564,420.083z
		 M318.585,463.53H194.561c-2.348,0-4.25,1.903-4.25,4.25c0,2.347,1.902,4.25,4.25,4.25h118.559c-2.387,2.804-5.288,5.479-8.68,7.97
		H182.777c-10.688-7.849-16.555-17.515-16.555-27.331c0-11.105,7.139-19.601,13.587-25.009h127.596
		c6.448,5.408,13.587,13.903,13.587,25.009C320.992,456.339,320.171,459.989,318.585,463.53z"/>
	<g>
		<path d="M78.839,27.99c-1.363-1.909-4.017-2.353-5.929-0.987c-1.91,1.364-2.352,4.019-0.987,5.929l53.677,75.137
			c0.829,1.161,2.136,1.78,3.462,1.78c0.854,0,1.718-0.257,2.467-0.792c1.91-1.364,2.352-4.019,0.987-5.929L78.839,27.99z"/>
		<path d="M415.929,26.508c-1.911-1.365-4.565-0.923-5.929,0.986l-53.701,75.119c-1.365,1.91-0.924,4.564,0.985,5.929
			c0.749,0.536,1.612,0.793,2.468,0.793c1.326,0,2.632-0.619,3.461-1.779l53.701-75.119
			C418.279,30.527,417.838,27.873,415.929,26.508z"/>
		<path d="M472.959,334.841c-0.807-1.001-2.023-1.583-3.31-1.583H366.82c-0.078-0.004-0.156-0.006-0.234-0.006
			c-23.126,0-45.172-10.593-58.992-28.34l-33.008-46.184L434.095,35.45c0.412-0.576,0.673-1.246,0.76-1.948
			c2.747-22.199-20.532-31.592-33.225-33.457c-1.578-0.23-3.15,0.438-4.076,1.734L244.25,216.281L90.946,1.779
			c-0.926-1.296-2.502-1.963-4.076-1.734C74.178,1.91,50.898,11.303,53.646,33.502c0.087,0.702,0.348,1.372,0.76,1.948
			l159.509,223.277l-33.008,46.184c-13.82,17.747-35.866,28.34-58.992,28.34c-0.078,0-0.156,0.002-0.233,0.006H18.851
			c-1.286,0-2.503,0.582-3.31,1.583C4.628,348.388,0.771,364.999,4.385,382.88c2.69,13.312,8.55,22.602,8.798,22.991
			c0.78,1.224,2.132,1.964,3.583,1.964h149.112c1.372,0,2.66-0.663,3.458-1.779l74.914-104.863l0,0l74.914,104.863
			c0.798,1.117,2.086,1.779,3.458,1.779h149.112c1.451,0,2.803-0.741,3.583-1.964c0.248-0.389,6.107-9.679,8.798-22.991
			C487.73,364.999,483.872,348.388,472.959,334.841z M416.479,341.758v57.577h-21.124v-57.577H416.479z M219.138,251.418
			L61.98,31.431C60.856,15.953,78.838,10.454,85.614,8.937L239.026,223.59 M91.86,341.758v57.577H70.735v-57.577H91.86z
			 M20.933,341.758h41.303v57.577H19.212C15.196,391.958,3.162,365.604,20.933,341.758z M163.691,399.335H100.36v-57.577h21.554
			c0.08,0,0.16-0.002,0.24-0.007c25.671-0.073,50.148-11.908,65.516-31.69L402.886,8.938c6.783,1.519,24.757,7.019,23.634,22.494
			L163.691,399.335z M249.473,293.881l20.578-28.805l-0.687,0.961l31.432,43.979c0.033,0.046,0,0,0.034,0.045
			c15.367,19.781,39.845,31.616,65.516,31.69c0.08,0.004,0.159,0.007,0.24,0.007h20.269v57.577h-62.046L249.473,293.881z
			 M469.288,399.335h-44.31v-57.577h42.589C485.338,365.604,473.304,391.958,469.288,399.335z"/>
	</g>
</g>
</svg>